<svg width="28" height="32" viewBox="0 0 28 32" fill="none" xmlns="http://www.w3.org/2000/svg">
<g clip-path="url(#clip0_600_560)">
<path d="M22.3393 30.0986C20.6549 31.7196 18.7965 31.4669 17.0251 30.7026C15.1418 29.9229 13.4202 29.8736 11.4312 30.7026C8.9544 31.7628 7.63985 31.4546 6.14815 30.0986C-2.2737 21.5002 -1.03063 8.40222 8.54108 7.90912C10.8625 8.0324 12.4879 9.18194 13.8552 9.27747C15.8877 8.86759 17.8331 7.69339 20.0085 7.84749C22.6221 8.05705 24.5768 9.08023 25.882 10.9201C20.5057 14.1253 21.7799 21.1519 26.718 23.1243C25.7298 25.6977 24.4618 28.2402 22.3361 30.1202L22.3393 30.0986ZM13.6688 7.81667C13.4171 3.99515 16.5403 0.851644 20.1328 0.543457C20.6269 4.95053 16.0928 8.24813 13.6688 7.81667Z" fill="white"/>
</g>
<defs>
<clipPath id="clip0_600_560">
<rect width="27" height="32" fill="white" transform="translate(0.5)"/>
</clipPath>
</defs>
</svg>
