<svg width="32" height="32" viewBox="0 0 32 32" fill="none" xmlns="http://www.w3.org/2000/svg">
<g clip-path="url(#clip0_600_566)">
<path fill-rule="evenodd" clip-rule="evenodd" d="M1.57096 1.01591C1.19847 1.38797 0.984375 1.96062 0.984375 2.70474V29.1728C0.984375 29.9169 1.19847 30.4895 1.58489 30.8486L1.68584 30.9279L17.6439 16.0973V15.764L1.67192 0.936646L1.57096 1.01591Z" fill="white" fill-opacity="0.6"/>
<path fill-rule="evenodd" clip-rule="evenodd" d="M22.9533 21.0604L17.6304 16.112V15.7658L22.955 10.8174L23.0699 10.8837L29.3675 14.2096C31.1708 15.1543 31.1708 16.7105 29.3675 17.6681L23.0699 20.994C23.0681 20.994 22.9533 21.0604 22.9533 21.0604Z" fill="white"/>
<path fill-rule="evenodd" clip-rule="evenodd" d="M23.0675 20.9941L17.6298 15.939L1.5708 30.8634C2.15739 31.449 3.14432 31.5153 4.24788 30.9427L23.0675 20.9941Z" fill="white" fill-opacity="0.8"/>
<path fill-rule="evenodd" clip-rule="evenodd" d="M23.0675 10.8849L4.24788 0.949295C3.14606 0.363705 2.15739 0.44297 1.5708 1.02856L17.628 15.9385L23.0675 10.8849Z" fill="white" fill-opacity="0.8"/>
<g opacity="0.2">
<mask id="mask0_600_566" style="mask-type:alpha" maskUnits="userSpaceOnUse" x="1" y="20" width="23" height="12">
<g opacity="0.2">
<path opacity="0.2" fill-rule="evenodd" clip-rule="evenodd" d="M22.9524 20.887L4.26155 30.7563C3.21718 31.3144 2.28594 31.2755 1.68543 30.7692L1.58447 30.863L1.68543 30.9423C2.28594 31.447 3.21718 31.4875 4.26155 30.9294L23.0812 20.9937L22.9524 20.887Z" fill="white"/>
</g>
</mask>
<g mask="url(#mask0_600_566)">
<path opacity="0.2" fill-rule="evenodd" clip-rule="evenodd" d="M22.9524 20.887L4.26155 30.7563C3.21718 31.3144 2.28594 31.2755 1.68543 30.7692L1.58447 30.863L1.68543 30.9423C2.28594 31.447 3.21718 31.4875 4.26155 30.9294L23.0812 20.9937L22.9524 20.887Z" fill="white"/>
<path opacity="0.2" d="M22.9526 20.887L23.6302 20.0694L23.0841 19.6167L22.4567 19.9479L22.9526 20.887ZM4.26175 30.7563L3.76591 29.8172L3.76127 29.8197L4.26175 30.7563ZM1.68563 30.7692L2.37014 29.9574L1.65138 29.3514L0.962723 29.9914L1.68563 30.7692ZM1.58467 30.863L0.861767 30.0852L-0.0483398 30.931L0.928907 31.6983L1.58467 30.863ZM1.68563 30.9423L2.36886 30.1294L2.35531 30.118L2.34139 30.1071L1.68563 30.9423ZM4.26175 30.9294L3.76597 29.9903L3.76127 29.9928L4.26175 30.9294ZM23.0814 20.9937L23.5771 21.9328L24.9829 21.1906L23.759 20.1762L23.0814 20.9937ZM22.4567 19.9479L3.76591 29.8172L4.75759 31.6953L23.4484 21.826L22.4567 19.9479ZM3.76127 29.8197C2.9428 30.2571 2.52028 30.084 2.37014 29.9574L1.00112 31.5811C2.05201 32.4671 3.49196 32.3717 4.76223 31.6928L3.76127 29.8197ZM0.962723 29.9914L0.861767 30.0852L2.30758 31.6409L2.40853 31.5471L0.962723 29.9914ZM0.928907 31.6983L1.02986 31.7775L2.34139 30.1071L2.24044 30.0278L0.928907 31.6983ZM1.0024 31.7552C2.05195 32.6373 3.49028 32.5456 4.76223 31.8659L3.76127 29.9928C2.94447 30.4293 2.52034 30.2567 2.36886 30.1294L1.0024 31.7552ZM4.75752 31.8684L23.5771 21.9328L22.5856 20.0547L3.76598 29.9903L4.75752 31.8684ZM23.759 20.1762L23.6302 20.0694L22.2749 21.7045L22.4037 21.8113L23.759 20.1762Z" fill="white"/>
</g>
</g>
<g opacity="0.12">
<mask id="mask1_600_566" style="mask-type:alpha" maskUnits="userSpaceOnUse" x="22" y="15" width="9" height="6">
<g opacity="0.12">
<path opacity="0.12" fill-rule="evenodd" clip-rule="evenodd" d="M29.3659 17.4951L22.9395 20.8873L23.0543 20.9941L29.3519 17.6682C30.2536 17.1894 30.6974 16.565 30.6974 15.939C30.64 16.5116 30.1822 17.0568 29.3659 17.4951Z" fill="white"/>
</g>
</mask>
<g mask="url(#mask1_600_566)">
<path opacity="0.12" fill-rule="evenodd" clip-rule="evenodd" d="M29.3659 17.4951L22.9395 20.8873L23.0543 20.9941L29.3519 17.6682C30.2536 17.1894 30.6974 16.565 30.6974 15.939C30.64 16.5116 30.1822 17.0568 29.3659 17.4951Z" fill="white"/>
<path opacity="0.12" d="M29.3659 17.4951L29.8616 18.4343L29.8682 18.4307L29.3659 17.4951ZM22.9395 20.8873L22.4438 19.9482L21.1206 20.6467L22.2166 21.6652L22.9395 20.8873ZM23.0543 20.9941L22.3314 21.772L22.8837 22.2851L23.5503 21.9331L23.0543 20.9941ZM29.3519 17.6682L29.8478 18.6072L29.85 18.6061L29.3519 17.6682ZM30.6974 15.939H31.7593L29.6408 15.833L30.6974 15.939ZM28.8701 16.556L22.4438 19.9482L23.4352 21.8264L29.8616 18.4342L28.8701 16.556ZM22.2166 21.6652L22.3314 21.772L23.7772 20.2162L23.6624 20.1095L22.2166 21.6652ZM23.5503 21.9331L29.8478 18.6072L28.856 16.7292L22.5584 20.0551L23.5503 21.9331ZM29.85 18.6061C30.9259 18.0347 31.7593 17.1209 31.7593 15.939H29.6355C29.6355 16.0091 29.5812 16.3441 28.8539 16.7304L29.85 18.6061ZM29.6408 15.833C29.6352 15.8891 29.5507 16.1906 28.8635 16.5596L29.8682 18.4307C30.8137 17.923 31.6448 17.1341 31.754 16.0449L29.6408 15.833Z" fill="white"/>
</g>
</g>
<g opacity="0.25">
<mask id="mask2_600_566" style="mask-type:alpha" maskUnits="userSpaceOnUse" x="0" y="0" width="31" height="16">
<g opacity="0.25">
<path opacity="0.25" fill-rule="evenodd" clip-rule="evenodd" d="M4.24804 1.1233L29.3652 14.3848C30.1816 14.8102 30.6394 15.3683 30.7107 15.941C30.7107 15.3166 30.2669 14.6905 29.3652 14.2117L4.24804 0.950208C2.44476 -0.00744176 0.984375 0.790061 0.984375 2.70536V2.87845C0.984375 0.963149 2.44476 0.178588 4.24804 1.1233Z" fill="white"/>
</g>
</mask>
<g mask="url(#mask2_600_566)">
<path opacity="0.25" fill-rule="evenodd" clip-rule="evenodd" d="M4.24804 1.1233L29.3652 14.3848C30.1816 14.8102 30.6394 15.3683 30.7107 15.941C30.7107 15.3166 30.2669 14.6905 29.3652 14.2117L4.24804 0.950208C2.44476 -0.00744176 0.984375 0.790061 0.984375 2.70536V2.87845C0.984375 0.963149 2.44476 0.178588 4.24804 1.1233Z" fill="white"/>
<path opacity="0.25" d="M4.24793 1.1233L4.74374 0.184241L4.74072 0.182657L4.24793 1.1233ZM29.3651 14.3848L28.8693 15.3239L28.8744 15.3265L29.3651 14.3848ZM30.7106 15.941L29.6569 16.0723L31.7726 15.941H30.7106ZM29.3651 14.2117L29.8632 13.2739L29.8609 13.2727L29.3651 14.2117ZM4.24793 0.950209L3.74987 1.88807L3.75213 1.88926L4.24793 0.950209ZM3.75213 2.06235L28.8693 15.3239L29.8609 13.4458L4.74374 0.184246L3.75213 2.06235ZM28.8744 15.3265C29.5347 15.6706 29.6464 15.9879 29.6569 16.0723L31.7644 15.8097C31.6322 14.7488 30.8283 13.9499 29.8559 13.4431L28.8744 15.3265ZM31.7726 15.941C31.7726 14.7611 30.9397 13.8456 29.8632 13.2739L28.8671 15.1496C29.5938 15.5355 29.6487 15.872 29.6487 15.941H31.7726ZM29.8609 13.2727L4.74374 0.0111576L3.75213 1.88926L28.8693 15.1508L29.8609 13.2727ZM4.74599 0.0123503C3.65271 -0.568244 2.44295 -0.72843 1.43505 -0.183809C0.40231 0.374237 -0.0776367 1.48483 -0.0776367 2.70536H2.04617C2.04617 2.0106 2.29642 1.76478 2.44469 1.68467C2.6178 1.59112 3.03987 1.51101 3.74988 1.88807L4.74599 0.0123503ZM-0.0776367 2.70536V2.87845H2.04617V2.70536H-0.0776367ZM2.04617 2.87845C2.04617 2.18475 2.29551 1.94281 2.4427 1.86368C2.61795 1.76946 3.04298 1.69084 3.75515 2.06394L4.74072 0.182657C3.64961 -0.388957 2.44279 -0.547646 1.43704 -0.00693613C0.403217 0.548859 -0.0776367 1.65685 -0.0776367 2.87845H2.04617Z" fill="white"/>
</g>
</g>
</g>
<defs>
<clipPath id="clip0_600_566">
<rect width="31" height="32" fill="white" transform="translate(0.5)"/>
</clipPath>
</defs>
</svg>
