<svg width="142" height="57" viewBox="0 0 142 57" fill="none" xmlns="http://www.w3.org/2000/svg">
<path fill-rule="evenodd" clip-rule="evenodd" d="M57.1688 15.1012C57.0778 14.1631 56.8829 13.1338 56.701 12.1957C56.2329 9.87613 55.5186 7.61351 54.5702 5.44647C54.2907 4.86536 54.17 4.22033 54.2202 3.57716C54.2704 2.93398 54.4898 2.31566 54.856 1.78524C55.1905 1.24284 55.6568 0.794507 56.2113 0.482289C56.7659 0.170072 57.3904 0.00419688 58.0263 0.000220112H68.8625C69.6676 -0.00844846 70.4548 0.239126 71.1108 0.707354C71.7669 1.17558 72.258 1.84035 72.5135 2.60608C73.4518 5.24808 74.1094 7.982 74.4754 10.7624C74.7625 12.6578 74.949 14.5671 75.0341 16.4823V20.0523L78.3084 16.3911C78.6526 15.9812 79.0823 15.6521 79.5672 15.4269C80.0522 15.2018 80.5805 15.0862 81.1149 15.0882H90.093C89.996 14.117 89.8485 13.1515 89.6513 12.1957C89.1792 9.87558 88.4605 7.61292 87.5074 5.44647C87.23 4.86548 87.1092 4.22174 87.1571 3.57938C87.205 2.93702 87.4198 2.31843 87.7803 1.78524C88.1147 1.24284 88.5811 0.794507 89.1356 0.482289C89.6901 0.170072 90.3146 0.00419688 90.9506 0.000220112H101.8C102.605 -0.00844846 103.392 0.239126 104.048 0.707354C104.704 1.17558 105.195 1.84035 105.451 2.60608C106.395 5.2464 107.052 7.98094 107.413 10.7624C107.699 12.6387 107.88 14.5149 107.984 16.4823V20.0523L111.259 16.3911C111.601 15.9791 112.03 15.6485 112.516 15.4232C113.001 15.1979 113.53 15.0834 114.065 15.0882H137.167C137.677 15.0741 138.185 15.1634 138.66 15.3508C139.135 15.5382 139.567 15.8197 139.931 16.1786C140.295 16.5374 140.583 16.9662 140.778 17.4393C140.972 17.9124 141.07 18.42 141.065 18.9318V51.883C141.079 52.4002 140.988 52.9149 140.797 53.3956C140.606 53.8764 140.32 54.313 139.955 54.6789C139.59 55.0448 139.154 55.3322 138.675 55.5235C138.196 55.7149 137.682 55.8061 137.167 55.7918H115.079C114.448 55.8071 113.823 55.6594 113.266 55.3627C112.708 55.0661 112.236 54.6305 111.895 54.0979L107.997 48.1957V52.1045C108.01 52.6212 107.918 53.1351 107.726 53.6149C107.535 54.0948 107.248 54.5307 106.883 54.8962C106.519 55.2617 106.084 55.5492 105.606 55.7412C105.127 55.9332 104.615 56.0258 104.099 56.0133H82.0114C81.3804 56.0286 80.7561 55.8809 80.1986 55.5842C79.6411 55.2876 79.1691 54.852 78.8281 54.3194L74.9302 48.4172V52.326C74.9354 52.8322 74.8398 53.3343 74.649 53.803C74.4583 54.2717 74.1761 54.6975 73.8192 55.0555C73.4622 55.4134 73.0376 55.6964 72.5702 55.8877C72.1028 56.079 71.6021 56.1748 71.0973 56.1696H61.0667C60.3729 56.1736 59.6923 55.9792 59.1047 55.6093C58.5229 55.9921 57.8384 56.1875 57.1428 56.1696H47.1382C46.628 56.1837 46.1202 56.0943 45.6452 55.907C45.1702 55.7196 44.7378 55.4381 44.3739 55.0792C44.01 54.7204 43.722 54.2916 43.5272 53.8185C43.3324 53.3454 43.2348 52.8377 43.2403 52.326V44.6387L40.6287 53.2901C40.3941 54.0791 39.9123 54.7713 39.2547 55.2641C38.5971 55.7569 37.7986 56.0242 36.9776 56.0263H26.96C26.0765 56.0502 25.214 55.7542 24.5304 55.1924C23.8445 55.7592 22.976 56.0557 22.0877 56.0263H12.0961C11.2565 56.038 10.4379 55.7633 9.77452 55.2472C9.11112 54.7311 8.64233 54.0043 8.44502 53.1859C5.91139 44.3781 3.01395 35.7396 0.207462 27.023C-0.0691542 26.2928 -0.0691542 25.4862 0.207462 24.7559L2.27335 18.111C2.50775 17.3255 2.9881 16.6365 3.64331 16.1461C4.29852 15.6557 5.09378 15.3898 5.91139 15.3878H15.929C16.4761 15.389 17.0168 15.5055 17.516 15.73C18.0152 15.9545 18.4617 16.2819 18.8264 16.6908C19.1912 16.2819 19.6376 15.9545 20.1368 15.73C20.636 15.5055 21.1768 15.389 21.7239 15.3878H30.9879C31.5849 15.4044 32.1711 15.5517 32.7053 15.8196C33.2395 16.0874 33.7088 16.4693 34.0802 16.9383C34.4398 16.4633 34.9061 16.0801 35.4411 15.8197C35.9762 15.5594 36.5649 15.4293 37.1595 15.44H57.0908L57.1688 15.1012Z" fill="#330066"/>
<path fill-rule="evenodd" clip-rule="evenodd" d="M94.3158 18.9456C94.3009 16.4251 94.0442 13.9119 93.5493 11.4407C93.0452 8.8446 92.2384 6.31693 91.1456 3.90979H101.995C102.804 6.36117 103.429 8.86979 103.866 11.4147C104.145 13.1407 104.331 14.8804 104.424 16.6264V29.9684L114.429 18.8935H127.422C112.09 35.558 117.145 32.8349 94.3158 32.8349V18.9456ZM127.435 18.9456H137.544V51.8837H115.365L107.569 40.2486L104.333 43.7144V51.7795H82.1544L74.3586 40.1573L71.0844 43.6231V51.6883H61.0668V18.672C61.0617 16.1523 60.8137 13.639 60.3262 11.1671C59.8138 8.57827 58.9983 6.05918 57.8965 3.66223H68.7456C69.5579 6.11273 70.1834 8.62158 70.6166 11.1671C70.8967 12.8929 71.0833 14.6327 71.1753 16.3788V29.7339L81.1799 18.672H94.1729L81.4138 32.5743L94.2249 51.3365V36.4049H111.116C118.912 36.5873 121.978 43.5319 127.305 51.3104V18.672L127.435 18.9456Z" fill="#FF9D18"/>
<path fill-rule="evenodd" clip-rule="evenodd" d="M14.0581 25.6156L16.111 18.9446H6.10641L4.04053 25.6156C6.75606 34.3322 9.75745 43.1531 12.2781 51.8827H22.2827L24.7254 44.0651L27.1551 51.8827H37.1597L40.1611 42.3062L43.1494 32.7426L47.4501 18.8534H37.4455L33.1448 32.7426L32.3003 35.557L29.4029 26.3583L31.3648 18.8534H22.0878L18.1899 32.7426L17.3454 35.557L14.292 25.5114L14.0581 25.6156Z" fill="white"/>
<path fill-rule="evenodd" clip-rule="evenodd" d="M47.3591 18.9449V32.743V51.8831H57.4677V32.743V18.9449H47.3591Z" fill="white"/>
</svg>
